<svg xmlns="http://www.w3.org/2000/svg" viewBox="0 0 1159 916">
    <defs>
        <style>.cls-1{fill:rgb(255,255,255,1);}</style>
    </defs>
    <title>otherworld logo</title>
    <g id="Layer_5" data-name="Layer 5">
        <path class="cls-1" d="M242.86,524.34c-1.46,7.18-8.78,12.62-17.8,13.2-4.38.39-8.77.19-13.16.19s-8.53.39-12.92-.39c-9.26-1.74-15.59-8.15-15.59-15.52V437.19c0-3.88-.74-18.83.73-23.1,2.19-6.21,9.26-10.67,17.55-11.25,4.14-.39,8.53-.2,12.91-.2s8.78-.39,13.17.39c9,1.75,15.35,8.15,15.35,15.53V503C243.1,505.51,243.35,521.82,242.86,524.34ZM223.12,418.56H203.37V521.82h19.75Z"/>
        <path class="cls-1" d="M316,419H296V538.12H276V419H256.27V403H316Z"/>
        <path class="cls-1" d="M399.1,403.22v135.1H379.6V476.2H351.08v62.12h-19V403.22h19v57.85H379.6V403.22Z"/>
        <path class="cls-1" d="M470.76,537.54h-60V402.45h60v15.91h-40V462h34.85V478H430.79v43.67h40Z"/>
        <path class="cls-1" d="M545.84,465.53c-1.47,7.57-10,13.39-19.75,13.39,2.69,9.32,5.37,23.68,8,33,1.46,4.66,2.68,11.06,4.14,15.72.49,2.33,1.22,4.66,2,7,.25.58.25,1.16.49,1.74,0,.2.24.59.24.78.25.39-.48.39-.73.39h-19c-.49,0-.24-.78-.24-1-.25-.58-.49-1.17-.74-1.75-1.21-4.66-2.68-10.87-3.9-15.53-2.68-9.31-5.36-23.87-8-33.19a25.35,25.35,0,0,1-1.22-4.46c-.24-.58-.48-1.36-.73-2.14,0-.19-.24-.38-.24-.58-.49-1.74,0,1.75,0,2.72v54c0,.77,1,1.94-.49,1.94h-19.5c-.49,0,0-.39,0-.58V402.64s0-.19.24-.19h40.47a21.79,21.79,0,0,1,14.86,6c3.9,3.88,4.39,7.95,4.39,12.61v36.49A43.25,43.25,0,0,1,545.84,465.53Zm-19.75-47.17h-20V463h20Z"/>
        <path class="cls-1" d="M643.83,537.54H624.08L604.1,482l-20,55.51h-20V402.64h20v77.25l20-55.7,20,55.7V402.64h19.75Z"/>
        <path class="cls-1" d="M718.42,524.34c-1.47,7.18-8.78,12.62-17.8,13.2-4.38.39-8.77.19-13.16.19s-8.53.39-12.92-.39c-9.26-1.74-15.6-8.15-15.6-15.52V437.19c0-3.88-.73-18.83.73-23.1,2.2-6.21,9.26-10.67,17.55-11.25,4.15-.39,8.53-.2,12.92-.2s8.78-.39,13.16.39c9,1.75,15.36,8.15,15.36,15.53V503C718.66,505.51,718.9,521.82,718.42,524.34ZM698.67,418.56H678.93V521.82h19.74Z"/>
        <path class="cls-1" d="M795,465.53c-1.46,7.57-10,13.39-19.74,13.39,2.68,9.32,5.36,23.68,8,33,1.46,4.66,2.68,11.06,4.14,15.72.49,2.33,1.23,4.66,2,7,.24.58.24,1.16.48,1.74,0,.2.25.59.25.78.24.39-.49.39-.73.39h-19c-.48,0-.24-.78-.24-1l-.73-1.75c-1.22-4.66-2.68-10.87-3.9-15.53-2.68-9.31-5.36-23.87-8-33.19a25.36,25.36,0,0,1-1.23-4.46c-.24-.58-.48-1.36-.72-2.14,0-.19-.25-.38-.25-.58-.49-1.74,0,1.75,0,2.72v54c0,.77,1,1.94-.49,1.94H735.24c-.49,0,0-.39,0-.58V402.64s0-.19.24-.19h40.46a21.84,21.84,0,0,1,14.87,6c3.9,3.88,4.39,7.95,4.39,12.61v36.49A43.26,43.26,0,0,1,795,465.53Zm-19.74-47.17h-20V463h20Z"/>
        <path class="cls-1" d="M867.84,538.32h-60V403.22h20V522.4h40Z"/>
        <path class="cls-1" d="M940,424v92.39c0,4.08.24,8-1.71,11.84a17.34,17.34,0,0,1-9.51,8c-4.63,1.75-9,1.55-13.89,1.55H880V402.84h34.61c4.87,0,9.5-.2,14.13,1.55,4.88,1.94,7.8,4.46,9.75,8.54C940.23,416.81,940,420.31,940,424Zm-20-5.24H900V521.82h20Z"/>
        <path class="cls-1" d="M541.66,635.86h6.09c4.53,0,113,4.72,113,7.92a6.09,6.09,0,0,1-2.39,5.12c-1.6,1.23-110.07-1.29-113-1.29h-8.57a12.67,12.67,0,0,1-7.47-1.94,6.13,6.13,0,0,1-2.73-5.28,12.43,12.43,0,0,1,1.14-4.53l8.89-21.9.6-1.51q2.48-6.09,8-6.09a5.58,5.58,0,0,1,3.91,1.51,4.71,4.71,0,0,1,1.64,3.61,15.92,15.92,0,0,1-1.45,5.29Zm2.11-53.71a7.24,7.24,0,0,1,5.32,2.19c1.45,1.45,7.18,10.23,7.18,12.31A7.51,7.51,0,0,1,543.46,602c-1.45-1.45-1.55-2.08-2.46-4-1.28-2.65-4-12.21-2.54-13.66A7.23,7.23,0,0,1,543.77,582.15Z"/>
        <path class="cls-1" d="M596.55,635.86,594,642.07c4.57,0,15.89-4.61,15.89-1.41a6,6,0,0,1-2.42,5.12,10.89,10.89,0,0,1-6.69,1.83H589.49a8,8,0,0,1-5.53-2,6.44,6.44,0,0,1-2.24-5,16.49,16.49,0,0,1,1.51-5.5L588,623.34a9.69,9.69,0,0,0,.81-3,2.66,2.66,0,0,0-1-2.21,4.3,4.3,0,0,0-2.83-.92q-5.56,0-9,8.36l-6.36,15.64c-1.91,4.74-4.64,5.51-8.41,5.51-1.55,0-3,1.14-4,.2a4.37,4.37,0,0,1-1.61-3.45,9.72,9.72,0,0,1,.86-3.61l.59-1.46,10.89-26.85q2.11-5.24,7.18-5.23A6.12,6.12,0,0,1,581,610q5.78-4.41,11-4.42a12.15,12.15,0,0,1,8.36,2.91,9.47,9.47,0,0,1,3.29,7.39,14.81,14.81,0,0,1-1.19,5.45Z"/>
        <path class="cls-1" d="M644.77,624.8l8.36,13.1c1,1.62,4.9,7.82,4.9,8.86,0,1.65-4-1.72-5.42-.39a6.57,6.57,0,0,1-4.66,2,4.77,4.77,0,0,1-3.94-2.43l-.65-1-12.51-18.71-6,14.93q-2.91,7.18-8.52,7.18a5.66,5.66,0,0,1-3.91-1.43,4.5,4.5,0,0,1-1.59-3.48,9.57,9.57,0,0,1,.86-3.61l.6-1.46,23.08-56.89.59-1.46q2.48-6,7.93-6a5.52,5.52,0,0,1,3.88,1.51,4.77,4.77,0,0,1,1.62,3.61,10.07,10.07,0,0,1-.86,3.72l-.6,1.46-13.75,33.87,12.14-9q3.76-2.8,6.47-2.8a5.2,5.2,0,0,1,3.77,1.45,4.82,4.82,0,0,1,1.51,3.62q0,3.62-4,6.58l-1.24.91Z"/>
    </g>
</svg>