<svg id="Layer_1" data-name="Layer 1" 
    xmlns="http://www.w3.org/2000/svg" viewBox="0 0 317.96 416.55">
    <defs>
        <style>.cls-1{fill:#7f8bd3;}.cls-2{fill:#8cdd24;}</style>
    </defs>
    <title>other-world-logo-placeholder</title>
    <path class="cls-1" d="M293.7,263.35c-9.94.06-20.89,5.3-29.77,9.42-11.22,5.2-21.46,11.47-30.49,20-7.76,7.33-14.51,15.88-18.95,25.64-4.18,9.19-8.18,21-4.4,30.94,1.52,4,8.79,2.39,11.45,1.37,4.11-1.57,9.74-5.29,10.66-10,1.61-8.22,1.52-16.15,5.16-23.93a56.08,56.08,0,0,1,13-17.45,108.72,108.72,0,0,1,20-13.88c7.93-4.52,16.95-7.78,24.15-13.45,3.22-2.54,5.4-8.73-.78-8.7Z" transform="translate(-97.37 -22.41)"/>
    <path class="cls-1" d="M274.63,225c-18.21,3-33.71,12.81-48.57,23.17-6.91,4.82-13.84,9.85-19.07,16.55-5.53,7.1-8.64,15.13-12.07,23.36-12.09,29-30.36,59.11-22.41,91.82,1.7,7,4.31,13.9,8.71,19.7,5.05,6.69,11.77,11.67,18.12,17,7.52,6.34,15,8.26,24.71,8.76,8.64.45,17.33.36,26,.39,35.38.14,72.5-9,102.48-28.17,16.24-10.38,33.48-24.14,43.09-41.26,2.69-4.79,4.47-10.93,1.21-15.84-1.57-2.35-4.25-3.64-6.89-4.39a24.39,24.39,0,0,0-3.82-.53c-6.28-.74.93.2-2.28-.33a66.94,66.94,0,0,1-24.64-9c-11.59-7.11-36.92,7.71-32,21.91,1.56,4.51,3.19,9.29,3.05,14.13-.08,3.1-.1.75-.29,2.51-.07.61-1.23,3.38,0,.82-.36.78-.85,1.48-1.25,2.23,1.18-2.22,1.32-.53-.2.12-1.95.83,3.25-2.6.14-.09-.7.57-1.41,1.12-2.1,1.69-2.88,2.33,2.48-1.46.34-.19-.8.48-1.57,1-2.37,1.47-3.78,2.29-7.7,4.32-11.56,6.46A142.77,142.77,0,0,0,284.55,398c-1.36,1.27-2.72,2.56-4.06,3.86-.76.73-.75.73.05,0,1.77-1.66-1.67,1.54-1.76,1.49.1,0,3.36-1.77,3.73-1.93,2.62-1.12-.87.1,0,0a21.1,21.1,0,0,0-2.24.19l-4.55.36-9.08.71c-9.2.71-19.13,5.46-23.84,13.77-4.33,7.61-.22,13,7.84,13.59,20.11,1.57,41.92-.49,60.94-7.51,11.76-4.34,22.25-11.76,29.39-22.14,5-7.33,8-16.09,10.49-24.56,2.62-8.73,6.56-19.64-.14-27.46-7.42-8.66-19.82-8.63-30.06-6-20.47,5.33-39.85,19.24-49.72,38.17-2.06,4-3.17,8.87,1.07,11.9s11.26,1.78,15.71-.08c13.66-5.72,27.06-12,39.6-19.93L309,359.37c-.68.77-1.39,1.52-2.12,2.25,1.66-1.53,1.7-1.6.13-.19-.85.65-5.89,5.15-1.76,1.6a30.38,30.38,0,0,1-5.24,3.13c-.9.49-1.8,1-2.72,1.42,2.46-1.16,2.65-1.26.58-.32-3.87,1.55-7.7,3.1-11.65,4.41-.79.26-7.28,2.19-2.77.9q-3,.85-6,1.67c-4.42,1.2-8.86,2.46-13.37,3.32-1.19.23-2.38.43-3.59.59,1.47-.24,1.15-.28-.93-.14-2.05-.1-2.4-.1-1.08,0a26.27,26.27,0,0,1-2.76-.64c-5.45-1.55-10.46-6.06-13.56-12.48l-33.35,22.84c19.89,17.5,51.83,15.06,72.89,1.07,5.46-3.63,15.05-10.85,12.28-18.71-2.57-7.32-13.26-6.4-19-3.73a29.43,29.43,0,0,1-3.11,1.34c2.14-.59,2.13-.62,0-.11-3.54.58,1.8.25-2.15.24-1.7,0-3.38,0-5.09-.07a17.71,17.71,0,0,1-3.7-.38c-6.74-1-15-1.77-21.16-4.83,1.77.88-2.1-1.49-2-1.43-.36-.26-2.19-1.88-2.16-1.84-2.36-2.7-3.8-6.46-5.06-9.75a126.33,126.33,0,0,1-6.26-21.28c-1.35-7.11-2.15-14.71-.5-21.83.37-1.57.9-3.08,1.34-4.63.71-1.78.75-2,.14-.65.44-1,.92-1.93,1.43-2.87.75-1.42,1.61-2.78,2.45-4.15,2.6-4.27-2.21,2.41,1-1.43,1.22-1.45,2.43-2.89,3.74-4.26.55-.6,1.12-1.17,1.7-1.74-1.83,1.71-1.9,1.81-.22.28a80.44,80.44,0,0,1,8.35-6.49c-4.63,2.86,2-1.14,2.77-1.64q2.26-1.38,4.58-2.69c3.59-2.05,7.24-4,10.9-5.92l-20.28-14c-18.15,20.75-37.71,44-41.53,72.25-2.75,20.43,34.51,7,36.55-7.48a80.66,80.66,0,0,1,3.84-15.9,56.49,56.49,0,0,1,6.28-12.46c.56-.88,1.17-1.72,1.73-2.6-1.91,3,.84-1.05,1.11-1.37,1.65-2,3.44-3.92,5.26-5.78-1.85,1.89-1,1,.42-.29,1-.89,2.09-1.75,3.17-2.59.54-.42,5.26-3.5,1.21-1,1.24-.77,2.45-1.56,3.69-2.31,2.49-1.5,5-2.9,7.62-4.25,1.29-.67,2.6-1.3,3.89-2-3.78,1.94,0,0,.78-.33,3-1.36,6-2.63,9.06-3.77,1.39-.52,2.83-.94,4.21-1.47,2.92-1.12-4.13.95,1.21-.34a72.1,72.1,0,0,1,33.7-.62L340,236.42A324.83,324.83,0,0,0,265.59,260c-7.16,3.27-18.52,10.08-17.61,19.51s13.64,7.37,19.43,5.25c2.37-.87,4.76-1.68,7.13-2.53,4-1.45-1.32.09,2.5-.75,4.64-1,5.76-1.75,10.09-1.09a22.49,22.49,0,0,1,14.25,9.21c3.69,5.23,11,4.56,16.38,3a32.8,32.8,0,0,0,18.32-13.39c1.1-1.66,1-1.55-.34.31.57-.72,1.16-1.41,1.78-2.08,1.5-1.54,1.25-1.33-.76.65.69-.59,1.4-1.17,2.13-1.72q-3.81,2.51-1.75,1.21.87-.56,1.77-1.05,3.06-1.61-1.33.59,1.26-.54,2.55-1,3.09-1-1,.29c.89-.22,1.78-.4,2.68-.55,3.48-.8-3.05-.24.81-.05.72,0,6.21.57,2.72,0a46.36,46.36,0,0,1,5.3,1.26l11.79-27.19c-5.1,2.28-10.28,4.26-15.57,6-1.49.51-2.31.72-.31.15-1.19.34-2.38.66-3.58,1-3,.77-6,1.43-9,2-8.94,1.78-18.59,8-22.32,16.51-3.35,7.68,1.6,12.68,9.45,13,9.19.41,18.39.76,27.58,1.12,10.92.43,20.64.68,31.24-2.74,9.13-2.94,21.34-13.18,17.69-23.88-8-23.36-28.6-41-52-47.84-31.21-9.09-64.19,1.27-89.93,19.4l25.57,11.12c2.17-2.59-1.07.75-2.07,1.42-.7.46-5.94,2.69-2.51,1.48a17.72,17.72,0,0,1-4.19.91c3.77-.42-2.18-.72,1.52.06l21.66-29.53c-14.44,0-27.23,5.38-38.85,13.59l28.41,7.3c1-1.76.89-1.64-.46.34a11.9,11.9,0,0,1-2.9,2.39,13.8,13.8,0,0,1-7.22,2.58c9.56-.47,20.08-5.87,24.92-14.39,4.06-7.15.64-14.63-8.2-14.2a52,52,0,0,0-41.21,23.47c-3.57,5.35-2.4,13,4.52,14.58,8.63,1.93,17.09-2.47,23.9-7.28-1.18.83-3.21,2-.76.7l-2.3,1.13c1.82-.64,2-.73.47-.25-3.42.93,2.53-.5-.23,0-2.1.4,2.17,0,2.37,0,9.34.16,19.38-5.86,24.75-13.19,3.94-5.38,5.62-14.41-3.09-16.34-17.47-3.87-36.54,4.4-47.94,17.72-4.4,5.14-8,14,0,17.67,8.57,3.87,18.68-1.81,25.54-6.55-4.43,3.06-1,.77,0,.15s2.35-1.32,3.51-2c4.69-2.71-4.37,1.73.63-.33,1-.41,2-.84,3-1.23s3.64-1.73,4.57-1.61l-2,.59c.78-.22,1.56-.42,2.35-.61,2.62-.65,5.29-1,7.93-1.56,2.06-.44-2.62,0,.84-.1,1.34-.06,2.68-.15,4-.18a72.28,72.28,0,0,1,8.06.27c1.62.15-1.3-.31,1.4.24,1.59.32,3.18.58,4.75,1a68,68,0,0,1,7.1,2.11c.3.1,3.55,1.37,2.35.86s2.3,1.12,2.25,1.09c2.16,1.09,4.25,2.29,6.29,3.58a71.93,71.93,0,0,1,11.32,9,40.85,40.85,0,0,1,3.52,3.94,67.36,67.36,0,0,1,4.59,6.45,66.22,66.22,0,0,1,6.45,13.64L378,260.71c1.62-.53,4.7-.63,1.58-.79-1.78-.09-3.57-.09-5.35-.15l-11.85-.44q-11.85-.43-23.7-.84L325.77,288a183.92,183.92,0,0,0,38.55-12.56c6.95-3.18,13.85-7.51,17-14.8,2.33-5.34.76-10.67-5.25-12.38-27.46-7.86-59,7.58-73.65,31.05l34.71-10.42A41,41,0,0,0,307.88,252c-14.57-1.63-28.78,3-42.29,8l1.82,24.76a302.3,302.3,0,0,1,33.25-13c1.45-.47,2.91-.92,4.37-1.38-1.94.61-.78.22.48-.14,2.94-.83,5.89-1.63,8.85-2.37,5.92-1.49,11.89-2.78,17.89-3.93,7.75-1.47,16.42-6.85,20.39-13.86,2.89-5.07,2.61-12.27-4.26-13.72-33.88-7.2-67.4,2.85-96.52,20.38-26.1,15.72-47.06,41-51.72,71.76L236.69,321a79.32,79.32,0,0,1,4.51-17c1.16-3-.38.48,1-2.18.73-1.44,1.44-2.87,2.21-4.29,1.42-2.6,3-5.14,4.58-7.63.74-1.14,1.49-2.27,2.27-3.39.15-.21,3.31-4.43,1.13-1.61,1.85-2.39,3.69-4.78,5.6-7.11,4-4.87,8.14-9.59,12.32-14.29,3.79-4.27,7.54-12.25,1.59-16.49-6.31-4.5-15.94-.55-21.87,2.51-18.37,9.5-36.91,20.54-49.91,37-13.5,17.09-19.11,37-14.4,58.5a148,148,0,0,0,9.17,28.67c4.15,9.25,11.37,14.87,20.87,18,8.95,3,19.13,4,28.47,4.76a66.62,66.62,0,0,0,32.6-5.37l-6.71-22.44c-.79.52-1.61,1-2.41,1.52-2.78,1.79,1-.14,1.1-.42-.18.54-2.84,1.09-3.31,1.28-2.36.93,3.22-.56.7-.27a24.07,24.07,0,0,0-2.79.53c-2.32.54,2.63,0,.24,0-2.14-.07-4.26.11-6.41-.1,2.59.25-2.18-.52-3.06-.75a35.23,35.23,0,0,1-5.41-1.76c1.28.55-.3-.19-.67-.41-1-.6-2.06-1.16-3.06-1.81a42.38,42.38,0,0,1-5.05-3.92c-2.63-2.34-8.66-2-11.66-1.33a34.73,34.73,0,0,0-12,5.33c-5.59,3.83-13.22,11.37-9.67,18.85A37.78,37.78,0,0,0,231,405.24c12.94,3.44,26.27-.14,38.75-3.68,24.42-6.94,48.61-15.92,65.95-35.39,3.55-4,7-11.43,1.49-15.39s-15.31-.95-20.41,2.34-10.61,6.55-16.15,9.43c-1.32.68-2.64,1.35-4,2,2.57-1.26.36-.19-1,.42-3,1.34-6,2.48-9.08,3.58l16.78,11.81c.14-.24,2.9-4.41.86-1.6a38.33,38.33,0,0,1,2.44-3c.84-1,1.73-1.88,2.6-2.8,3.31-3.5-3,2.16.87-.71.51-.38,4-3,1.43-1.2s1.09-.56,1.63-.9c4.11-2.59-3.93,1.35.62-.34.38-.14,4.22-1.45,2.17-.88-2.28.64,2.81-.3.17,0-1,.11,1.89.79.36.06a2.94,2.94,0,0,1,2.07,2.88c.15,2.59-1.38,6-2.08,8.53q-1.38,4.95-3.05,9.82c-.42,1.22-.87,2.42-1.32,3.63s.51-.72-.59,1.41c-.71,1.37-1.44,2.7-2.28,4,1.76-2.72-1.27,1.24.47-.56,1.07-.94.87-.81-.58.4l1.72-1.23c-3.62,2.67,3.27-.95-1.05.49-.43.14-4.63,1.56-2.31.85s-2.2.55-2.62.65c-13.09,3.2-24.14,3.86-38.24,2.76l-16,27.36c7.69-.59,15.51-.84,23.14-2a52.38,52.38,0,0,0,26-12.25c2-1.72,3.91-3.64,5.81-5.44,2.86-2.71-2.21,1.78,1.41-1.29,2.51-2.12,5-4.25,7.6-6.23,1.29-1,3.17-2.3.77-.66,1.48-1,3-2,4.51-2.89,2.58-1.58,5.22-3.06,7.86-4.53,12.08-6.74,23.86-14.28,31.77-25.93,8.78-12.95,6.34-26.32,1.8-40.26l-32,21.92a87.35,87.35,0,0,0,19.8,9.37,64.48,64.48,0,0,0,9.89,2.39,38.7,38.7,0,0,0,7.21.89q5.61,1-3.61-3.54c1.19-3.33,1.21-3.94.06-1.85l-.91,1.3c.87-1.2.94-1.32.22-.37s-1.64,2.06-2.49,3.07c-2,2.41-4.21,4.69-6.43,6.94,3.11-3.16-.57.51-1.07.95-1.18,1-2.39,2.06-3.61,3.06s-2.48,2-3.75,2.92c-.84.63-1.69,1.25-2.56,1.86,2.22-1.49,2.36-1.6.45-.32-2.47,1.54-4.92,3.09-7.47,4.52-1.15.65-2.32,1.28-3.49,1.9-.78.41-5.47,3-.91.53-5.92,3.25-12.82,5.44-19.26,7.42,3.51-1.08-2.37.62-2.48.65q-2.72.72-5.45,1.36c-3,.7-6.09,1.32-9.16,1.88-9.46,1.72-14.75,2.08-24.19,3.15-4.88.56-14,1-20.5,1-5.69,0-13.35,1.27-18.42-1.26-3-1.47-5.59-4-8.23-6s-5.47-4-8-6.21a38.92,38.92,0,0,1-10-13.61c-10.8-23.58,1.15-49.86,10.86-71.52,3.58-8,6.87-16,10-24.15a34.85,34.85,0,0,1,4.37-8.76c-.91,1.2,2.5-2.57,2.07-2.16-1.36,1.34,1.74-1.51,2-1.76,3-2.5,6-4.85,9.13-7.19,2.85-2.15,5.95-4.46,8-5.76,6.16-3.94,11.56-7.17,18.53-8.95,5.43-1.39,12.2-5,13.73-10.93s-4.55-7-8.89-6.29Z" transform="translate(-97.37 -22.41)"/>
    <path class="cls-2" d="M190.78,82c-4.72,2-9.53,4.23-13.2,7.9a95.42,95.42,0,0,0-10.07,12.35A149.88,149.88,0,0,0,152.77,128c-8,18-13.39,40.9.95,57.39,16.55,19.06,42.61,12.18,60.1-2.2,15.56-12.79,27.26-31.06,30.7-51.06,1.56-9.05,2.16-18.71.12-27.74-2.61-11.5-10.71-18.07-22.73-18-12.47.1-23.89,6.34-34.39,12.46s-19.82,13.23-26.83,23.05c-6.41,9-8.22,19.73-8.44,30.55-.18,8.74-.06,21,5.62,28.17,8.12,10.34,23,8.51,33.79,3.74,11-4.86,21.82-12.39,29.52-21.69,3.8-4.6,7.34-10.1,8.49-16.06,1.08-5.63.81-10.85,2.41-16.43,2.79-9.79,6.65-20.18,4.13-30.47-2.93-12-12.87-19.22-25.12-19.42C195.78,80,179.17,89.77,172,103.35c-2.77,5.27-2.47,11.36,4.08,13.16,7.17,2,16.24-2,21.6-6.57,2.68-2.28,5.71-4.51,8-7.16a24.1,24.1,0,0,0,3.09-4.43q2.73-5.79.8-2.17l-15,11.95,1-.33-17.73-2.12.33.49-.5-6.18-.25.61,25.36-17.24-.46,0,5.3,17.06c2.74-2.87,5.49-5.74,8.32-8.54.19-.19,4.23-4,1.43-1.42,1.46-1.34,2.93-2.68,4.43-4,2.77-2.39,5.64-4.68,8.64-6.8-3.81,2.69.38-.14,1.27-.68s7.25-3.67,2.68-1.57l-18.69-8.51c-4.07,10-8.9,20.28-11.8,30.7-2.69,9.66-1.65,21.64,9.52,25,14,4.26,30.64-5.58,39.1-16.33a54.73,54.73,0,0,0,11.36-34.38c0-6-7.64-7.17-12-6.69-6.9.75-15,4.59-19.38,10.17a51.56,51.56,0,0,0-10.31,21.15c-1.61,7.57-2,15.43-2.84,23.12-1.51,14.59-5.69,31,.05,45,2.54,6.22,14,4,18.31,2.19,6.8-2.81,15.17-8.27,17-15.92q4.32-17.72,7.94-35.58c1.21-6,2.5-12,3.42-18.05s1.6-12.78-2.26-17.9c-6.83-9.08-19-8.42-29.21-9.09-1-.07-2.07-.24-.45,0-1.22-.17-2.44-.35-3.65-.58a53.59,53.59,0,0,1-6.36-1.55c-2.55-.81-6.88-2.91-8.91-5.1-6.18-6.69-16.59-4.21-23.67.13-4.25,2.59-8.38,5.84-10.87,10.24-1.45,2.54-3.47,7.61-1.08,10.19A44.84,44.84,0,0,0,204.35,99.4,111.69,111.69,0,0,0,220,101.3c2.12.13,4.24.16,6.35.32-3.15-.25,3.05,1,2.28.63-1.16-.51.79,1.16.39.37-.52-1.06.56,1.44.53,1.13a15.74,15.74,0,0,1-.16,4.64c-.76,5.81-2,11.62-3.14,17.37q-3.33,17.34-7.36,34.53l35.35-13.73c-1.94-4.58-1.34-10.07-.93-14.93.55-6.69,1.23-13.37,1.84-20,.49-5.33.92-11.59,1.57-16.34a53.64,53.64,0,0,1,1.58-7.74c.17-.59,1.12-3.33.37-1.57.3-.7,2.73-4.27.74-1.71l-31.38,3.49c0,5.75-2.18,10.59-3.34,14.67q-1,1.66.51-.35-1.81,2-.32.52a10.4,10.4,0,0,1,2.56-2l11-2.42c.73.42.76.4.09-.07s-.64-.49.18.1c-1.64-2.71.51,1.67-.36-1.49l0-1.24c-.25,1.2-.22,1,.08-.53.24-1.08.52-2.15.85-3.21.92-2.89,2.17-5.66,3.3-8.47,2.93-7.22,5.91-14.42,8.72-21.68,4.42-11.44-12.94-11.25-18.69-8.51-20.5,9.73-36.09,24.27-51.59,40.53-2.81,3-5.35,7.55-4,11.67,1.43,4.35,5.19,5,9.3,5.4l.46,0c10.36,1,21.67-8.29,25.36-17.23a7.75,7.75,0,0,0-.58-7.28c-3.79-5.79-12.38-3.95-17.73-2.12a31.56,31.56,0,0,0-13.4,8.8,19.15,19.15,0,0,0-3.09,4.5q-2.7,5.86-.8,2.09l6-6.77-4.56,3.87,25.68,6.59c1.65-3.15-1.2.84-1.76,1.29a14,14,0,0,1-6.07,2.94c-1.5.21-3.54-.67-1.11.29,3.53,1.39-1.13-1.16,2.06,1,4,2.68,5.06,7.9,4.67,12.76-.45,5.54-3.11,11.82-4.63,17.51a61.72,61.72,0,0,0-2,11.69c0-.56-.12,5,0,3.08a15.94,15.94,0,0,1-.74,2.79c.45-1,.43-1.1-.06-.2l-.37.64q1.68-2.16-.19.11c-2.73,3.7,2.69-1.84-1,1-1.23.94-2.44,1.91-3.66,2.86-4.09,3.19,3.53-2.49-.88.5-3.29,2.24,1.1-.28,2.11-.55l-1.46.3c4.21.28,5,.16,2.42-.37.54,1-.83-1.69-.35-.76a17,17,0,0,1-1.66-3.71c-1.63-6.11-1.6-13.12-1.34-19.38a37.86,37.86,0,0,1,1.26-8.73c-.05.17,1.9-4.61.92-2.71a27.06,27.06,0,0,1,1.56-2.57c-1.06,1.47-1,1.45.24,0,2.54-2.39.24-.28-.24.13,1-.81,2.39-2.45,3.58-2.86l-1.76,1.16c.87-.57,1.74-1.13,2.62-1.67,1.32-.82,2.66-1.6,4-2.36s2.69-1.51,4-2.24l1.49-.81q3.06-1.57-.13,0l1.56-.65q-2.91.66.26,0a3,3,0,0,1-2,.07c1.55.46,1.93.54,1.15.24,3.59,2.89,3.68,8,4,12.55a54.73,54.73,0,0,1-1.61,18.1,52.22,52.22,0,0,1-5.25,13.68c-.73,1.34-1.51,2.66-2.31,4-.17.26-3,4.38-.94,1.58-.91,1.23-1.89,2.41-2.9,3.56-.51.58-5,4.89-2,2.3L194,170.64q-2.67,2,.17.12l-.7.44c-1.22.7-.92.62.88-.23-4-.44.43,1.28.82.22-.19.5-4.53-.51-1.87.05a20.28,20.28,0,0,1-12.2-8.15c-9-12.29-5.52-28.07-.93-41.44,2.09-6.08,4-12.36,7-18.09a71.72,71.72,0,0,1,5-8.43c2.09-3,3.11-5.68,4.63-8.86,2.12-4.45-2.47-5.75-6-4.23Z" transform="translate(-97.37 -22.41)"/>
    <path class="cls-2" d="M209.13,35.24c-11.76-.56-23,5.6-32.9,11.27a155.2,155.2,0,0,0-25.6,18.92c-15.43,13.75-30.3,29.45-40.12,47.8-4.58,8.55-8.28,17.82-9.64,27.47-1.52,10.85-.16,21.09,1.71,31.81,1.73,9.82,2.59,20.76,6.57,30a55.63,55.63,0,0,0,17.08,21.88c36.52,28.17,88.35,8.3,121.61-15,17.82-12.48,30.59-29.82,38.22-50.07,6.66-17.65,8.73-36.71,10.47-55.36.9-9.68,1.86-19.43-.64-28.95-2.32-8.85-6.06-16.94-12.17-23.82-15-16.85-36.18-22.49-58.14-19.29-24.31,3.55-42.24,20.34-60.65,35-16.54,13.2-32,28-41.16,47.43-15.3,32.57-19.13,84.59,19,103.22,40.44,19.74,85.74-3.08,113.91-33.39C283.81,155,302,111.37,283.52,72.92c-4.1-8.56-10.5-16.93-18.4-22.29-10.47-7.11-23.09-8-35.3-6.51-10.93,1.37-21.45,5.12-31.73,9a193.14,193.14,0,0,0-28.17,12.71,96.53,96.53,0,0,0-26.4,21.5L175.82,91c.71-1.18,1.43-2.35,2.19-3.5.38-.58,2.56-3.74.49-.89,1.46-2,3.05-3.92,4.68-5.78s3.35-3.65,5.11-5.4c-2,2-1.14,1.08.43-.27q1.56-1.35,3.18-2.64c.86-.68,1.75-1.33,2.62-2,4.19-3.21-2.63,1.39-.05,0,.39-.2,3.46-1.9,3.46-2,0,.33-4.12,1.86-.78.46,4.35-1.81-2.3.14.23-.13a13.17,13.17,0,0,1,1.52-.3l-.92.15c.1.38,2.77-.23.31,0,1.47.53,1.86.59,1.17.19s-.35-.26,1.07.57l10.13-23.64c-41.38,24.33-89.19,59.44-89.47,112.68-.12,22.68,11.29,46.43,33.06,55.31,25.38,10.35,55.32-4.54,75.16-20a152.88,152.88,0,0,0,47.83-64.26c3.58-9-8.23-11.67-14.48-10.25-9.73,2.21-18.63,8.4-22.38,17.8-.4,1-.79,2-1.21,3,.85-2-.23.47-.35.71-.93,1.93-1.86,3.86-2.87,5.75-2.27,4.25-4.82,8.32-7.5,12.33-1.9,2.84-.54.81-.11.22-.63.86-1.29,1.71-2,2.55-1.32,1.68-2.69,3.33-4.09,4.95s-2.86,3.19-4.34,4.73c-.75.77-1.51,1.52-2.26,2.28,3.16-3.21-.24.21-1,.89-3,2.63-6.43,6.27-10,8,4-1.92,1.56-1,.53-.42s-1.85,1.15-2.79,1.69-1.91,1.05-2.87,1.57c-4.66,2.56,4-1.43-.94.38-1.43.52-6.76,2.06-2.75,1.14a48.72,48.72,0,0,1-6.19,1.22c3.29-.32.51-.12-.11-.15-1,0-2.05,0-3.08-.06,2.3.16-.17,0-.58-.14a36.73,36.73,0,0,1-4.49-1.21c-14.9-5.53-22.08-25.07-22.54-40.2-.25-8.16,1.25-15.4,4.4-23.63.18-.49,1.54-3.65.6-1.58.45-1,.94-2,1.44-2.94,1-2,2.06-3.86,3.19-5.73s2.35-3.7,3.58-5.52c-.41.61-2,2.52.19-.26.84-1.08,1.7-2.16,2.58-3.22,1.58-1.9,3.22-3.76,4.91-5.56.94-1,2-2,2.88-3,1.53-1.66-2.42,2.12.53-.52,4.26-3.79,8.64-7.41,13.23-10.8,1-.72,1.94-1.42,2.91-2.12,1.74-1.23,2.88-2.28.52-.39a79.88,79.88,0,0,1,7.55-4.9c5.09-3.2,10.26-6.26,15.45-9.29s9.73-7,12.12-12.53c1.57-3.59,2.14-8.78-2-11.1-18.9-10.66-41.27-.62-57.41,10.61A124.62,124.62,0,0,0,140.7,91.14c-4.14,6.76-1.49,13.92,6.61,14.83,9.18,1,19.85-4.22,25.69-11.17.67-.8,1.36-1.56,2-2.35.3-.34,2.09-2.33.25-.37s2-1.67,2.72-2.21A18.18,18.18,0,0,0,180.47,88c-.1.12-3.66,2.26-1.54,1.12,1.82-1,3.55-2.14,5.38-3.12,5-2.65-2.57,1,1.12-.61,1.68-.75,3.36-1.49,5.06-2.19,3.64-1.5,7.32-2.89,11-4.24s7.58-2.81,11.45-3.92c-4.33,1.24,2.54-.49,3.42-.66s1.73-.27,2.58-.45c2.74-.59-3.76,0,1.2-.06h2.54c2.74,0-1.86-.42.83,0a25,25,0,0,1,5.7,1.52c-.59-.25,2.32,1.41,2.94,1.82a35.18,35.18,0,0,1,4.8,3.89c9.72,9.46,14.35,24.6,14.71,38.55.38,15.2-4.7,29.17-12.48,41.67-.89,1.44-1.83,2.83-2.76,4.24-2,3-.58.9-.12.27-.66.91-1.36,1.8-2.05,2.68q-3.8,4.81-8,9.28c-.81.85-4.39,5.07-1.23,1.4a38.45,38.45,0,0,1-4.16,3.7c-1.41,1.19-2.85,2.36-4.33,3.48-.63.48-1.29.92-1.91,1.41-2.16,1.69,3.7-2.28.15-.12-1.57.95-3.13,1.92-4.74,2.81-.34.18-1.93.78-2.08,1.11.54-1.21,3.73-1.63.91-.45-1.68.71-3.36,1.41-5.09,2-.46.17-1.74.85-2.22.75q3.45-1,1.29-.42c-.51.14-1,.26-1.53.38-1.73.4-3.48.68-5.24,1,3.61-.64,0,0-1.58,0s-3.29-.06-4.94-.06c-.59,0-3.07-.28-.08.08-.93-.11-1.86-.26-2.79-.43a70.73,70.73,0,0,1-9.5-2.53c-.3-.1-2.5-1-.55-.14-.63-.27-1.26-.59-1.88-.9a49.67,49.67,0,0,1-4.8-2.76,55.8,55.8,0,0,1-6.79-5.34,42.59,42.59,0,0,1-5.57-8c-3.86-7.24-5.18-15.31-5.64-23.43a72.69,72.69,0,0,1,1.54-20.83,94.86,94.86,0,0,1,3-10.7c.6-1.75,1.24-3.49,1.95-5.2-.13.32-.85,1.87-.07.19.56-1.2,1.14-2.39,1.75-3.57,1.71-3.31,3.68-6.41,5.68-9.54.4-.63,2.13-2.74,0,0,.5-.63,1-1.26,1.48-1.88q2-2.5,4.22-4.86c.88-.94,4.63-4.55,1.78-1.94,1.51-1.38,3.05-2.75,4.61-4.08,3.35-2.87,6.81-5.61,10.27-8.35,3.22-2.55,6.45-5.1,9.63-7.72,1.58-1.3,3.16-2.62,4.75-3.92,1.21-1,4.63-4.63,6.24-4.85-.06,0-3.42,2.14-1.15.79.75-.44,1.5-.9,2.23-1.37,3.49-2.25,0-.27-.66.12a21.74,21.74,0,0,1,3-1.25c.38-.15,3-1,.54-.25s.73-.13,1.39-.27,1.6-.3,2.4-.45c3.32-.61-1.1-.21.9,0s3.81-.06,5.7.06c-.34,0-2-.29-.14,0,1.07.15,2.14.36,3.2.59a32.83,32.83,0,0,1,9.56,3.32c11.66,6.35,20.11,17.93,21.92,30.64,1.22,8.67.09,17.59-.72,26.25-.64,6.8-1.36,13.08-2.73,20.74a143.45,143.45,0,0,1-5.59,22c-.59,1.7-1.23,3.38-1.9,5.06s0,0,.15-.29c-.42.93-.86,1.85-1.31,2.76-1.72,3.46-3.78,6.63-5.79,9.9-1.09,1.76.37-.5.54-.71-.65.81-1.27,1.63-1.93,2.42-1.2,1.43-2.54,2.74-3.76,4.14-1.5,1.73.61-.55.82-.73-.84.73-1.66,1.47-2.5,2.19-1.7,1.42-3.48,2.75-5.25,4.08-2.54,1.89.38.51.57-.38-.07.31-1.81,1.16-2.11,1.34q-2.48,1.54-5,3c-1.75,1-3.53,2-5.32,2.89-.62.32-4,2-1.39.74s-1,.42-1.45.62c-3.77,1.65-7.62,3.06-11.52,4.36-2.92,1,2.95-.63-.07,0-.85.17-1.7.45-2.56.65-2.28.54-4.58,1-6.89,1.34-3.51.57-1.42.18-.63.11-1.17.1-2.35.17-3.52.21-1.59.06-3.19.06-4.79,0-1,0-2-.1-3-.17.67.05,2.57.42-.52-.07-2-.32-4-.7-6-1.19-13.6-3.38-23.68-11.93-30.13-25.39-3.38-7.06-6-13.53-7.54-21.21-1.72-8.6-3.7-17.4-3.1-26.22a56.71,56.71,0,0,1,5.6-19.85,110.11,110.11,0,0,1,11.47-18.18C160.16,83,169.84,73.28,183,63.53c1.5-1.12.32-.3,0-.08,1.51-1.09,3.23-2.3,4.83-3.39-1.69,1.15,2.51-1.59,3-1.9,2.12-1.31,5.52-4,7.27-4.17,6.33-.64,13.07-3.66,16.34-9.44,2.9-5.09.22-9-5.37-9.31Z" transform="translate(-97.37 -22.41)"/>
    <path d="M210,34.4c-23.2,1.63-45,15.83-61.64,31.36a168.45,168.45,0,0,0-38.71,55.16c-9.36,21.23-15.71,46.23-10.24,69.33,5.19,21.91,20.86,38.48,41.26,47.37,45.12,19.65,98.26-1.29,128.92-36.85,30.32-35.18,48.26-91.17,27.75-135.33C287.46,44.22,267.78,26.28,244,23.05c-23.58-3.22-49.27,5.7-61.95,26.66-1.28,2.14-.38,4,2,4.45,2.72.48,6-1.41,7.7-3.35,10.66-11.9,28-16.64,43.45-13.35,17.9,3.8,32.37,16.61,41.25,32.25,20.81,36.67,9.1,84.89-13.46,118-21.87,32.07-61.3,51.45-99.92,40.61-17.93-5-34.28-16.76-42.56-33.72-9.18-18.78-7.1-40.85-1.23-60.29,12.39-41.09,42.89-82.45,87-91.48,2.39-.49,5.52-2.26,6.36-4.7.69-2-.23-3.89-2.7-3.72Z" transform="translate(-97.37 -22.41)"/>
    <path d="M200.64,103.17c-7.07,4.88-12.24,13-16.87,20.12A140.47,140.47,0,0,0,171.89,145c-2.72,6.42-4.67,14.94,1.08,20.39,4.73,4.48,12.06,4.18,17.85,2.31,7.5-2.43,13.29-7.89,17.48-14.45a75.46,75.46,0,0,0,10-24.64c1.35-7,1.33-15-2.67-21.25-4.88-7.58-14.6-6.64-20.8-.87-2.24,2.08-5.75,6.16-2.36,8.87s9-.6,11.73-2.5l1-.7-6.55,3.16c-1.48.37-.52-.1,0,1.15.37.86,1,1.66,1.41,2.53a18.49,18.49,0,0,1,1.52,6.72c.34,5.29-1.24,10.44-3,15.38-1.87,5.3-5,20.15-12.5,16-8.86-4.94,1-21,4-26.84,2.41-4.71,5.08-9.27,7.92-13.74,2.57-4,6.05-8.13,7.42-12.75.88-3-3.82-1.21-4.78-.55Z" transform="translate(-97.37 -22.41)"/>
    <path d="M355.57,214.24c-16.65-10.65-38-7.42-56.43-4.47a142.62,142.62,0,0,0-55.26,20.74c-33.73,21.78-57.54,56.41-68.57,94.79-5.51,19.19-9,40.56-3.54,60.15,5,17.93,17.48,32.41,33.61,41.47,34.69,19.49,80.14,12.8,115.26-2.25,37.49-16.06,72.59-45.33,90.64-82.49,1.76-3.62.34-6.09-3.71-6.43a206.41,206.41,0,0,1-65.65-17.13c-5.05-2.21-11.17,1.62-13.18,6.35-5.72,13.5-17.85,22-30.51,28.51-13.85,7.07-30,12.38-45.08,5.84-13.18-5.71-20.41-21.15-18.38-35.05A50.76,50.76,0,0,1,258,288.35a49.92,49.92,0,0,1,24.73-7.79c8.72-.24,18.42,3.38,18.08,13.53-.1,3,4.15,3.08,6.07,2.77a300.79,300.79,0,0,1,93.51-.87c5,.76,17.8-4.56,14.37-11.55-12.73-26-25.54-54.36-52.51-68.45-4.2-2.19-15.72,4.89-10.61,8.57,23.13,16.66,35.92,43.83,46.18,69.66l14.38-11.54A289.71,289.71,0,0,0,310.1,285.4l6.07,2.77c-3.77-22.71-33.69-19.55-49.43-13.62-18.56,7-34.88,21.62-41.9,40.38-6.26,16.68-1,36.79,12,48.79,15.56,14.36,39.08,9.59,56.71,1.9,20.36-8.88,40.41-22.53,49.45-43.56l-13.18,6.35a277.41,277.41,0,0,0,68.42,20.08l-1.93-6.23C380.47,370,359.24,392.62,331,408c-29.54,16.07-67,24.1-99.79,14.3-16.09-4.8-30.86-14.76-39.63-29.29-9.64-16-10.26-35.7-7.38-53.71,5.64-35.17,22.07-69.68,49.56-92.91a123.63,123.63,0,0,1,52.16-26.46A256.07,256.07,0,0,1,318.31,215c10.6-1,20.86-1.29,29.86,5.21,3,2.19,10.77-3.82,7.4-6Z" transform="translate(-97.37 -22.41)"/>
    <path d="M376.77,253h-.66a4.22,4.22,0,0,0-3.45,2c-.2.4-.44,1-.14,1.39a1.46,1.46,0,0,0,1.28.57h.66a4.21,4.21,0,0,0,3.45-2c.21-.4.44-1,.15-1.39a1.48,1.48,0,0,0-1.29-.57Z" transform="translate(-97.37 -22.41)"/>
    <path d="M357.09,270.65l-10.2,9.84c-.85.82-1,2.21.25,2.65s3.06-.68,4-1.57l10.07-9.88c.82-.79,1-2.14-.23-2.56s-3,.66-3.87,1.52Z" transform="translate(-97.37 -22.41)"/>
    <path d="M356.6,242.5c-6.61,9.33-14.13,17.71-21.38,26.51-2.92,3.54,2.88,3.31,4.74,1.21,7.58-8.59,14.05-18.31,20.53-27.74,1.56-2.27-2.93-1.34-3.89,0Z" transform="translate(-97.37 -22.41)"/>
    <path d="M341.65,226.06c-7.08,5.49-11.6,15.11-15.81,22.82-4.92,9-9.92,17.87-17.07,25.31-3.54,3.69,3.22,3.9,5.44,1.39,6.36-7.18,10.8-15.52,15.34-23.9,2.29-4.23,4.55-8.48,7.07-12.58s6.15-7.87,8.61-12.12c1.48-2.55-2.55-1.73-3.58-.92Z" transform="translate(-97.37 -22.41)"/>
    <path d="M319.76,220.29l-2.1,4c-.43.83-.05,1.57.91,1.58a3.43,3.43,0,0,0,2.76-1.6l2-4c.41-.81.07-1.53-.89-1.54a3.33,3.33,0,0,0-2.7,1.56Z" transform="translate(-97.37 -22.41)"/>
    <path d="M301.52,238.49a121.75,121.75,0,0,1-13.35,19.92c-2.52,3.07,2.59,3.07,4.16,1.06a106.17,106.17,0,0,0,12.78-21c1.1-2.37-2.86-1.36-3.59,0Z" transform="translate(-97.37 -22.41)"/>
    <path d="M283.48,224.94a160.15,160.15,0,0,0-17.07,26.11c-1.75,3.36,4.29,2.19,5.34,0a137,137,0,0,1,15.44-25.13c2.19-2.82-2.31-2.7-3.71-.95Z" transform="translate(-97.37 -22.41)"/>
    <path d="M249.47,246.25c-8.52,13-16.75,26.44-22.6,40.85-1.42,3.47,5.78,1.24,6.79-.75,6.91-13.5,13.35-27.13,21.23-40.13,2-3.34-4.16-1.89-5.42,0Z" transform="translate(-97.37 -22.41)"/>
    <path d="M227.28,262.41c-4.85,7.28-9.08,15-13.49,22.55-1.75,3,3.8,1.9,4.88,0,4.16-7.46,8.6-14.83,12.27-22.54,1.19-2.5-2.85-1.21-3.66,0Z" transform="translate(-97.37 -22.41)"/>
    <path d="M203.7,311.48q-4.65,10.72-9.25,21.46c-.68,1.57,1.45,1.89,2.46,1.74a5.1,5.1,0,0,0,3.81-3q4.07-10.59,8.08-21.21c1-2.61-4.35-.69-5.1,1Z" transform="translate(-97.37 -22.41)"/>
    <path d="M221.56,318.91c-7.88,13.49-14.81,27.42-21.93,41.35-3.45,6.74-7,13.42-10.55,20.1s-7.62,13.07-10.27,20.05c-.78,2,1.54,2.64,3,2.57a7.72,7.72,0,0,0,5.64-3.52c4.25-6.48,7.28-13.91,10.66-20.89,3.24-6.7,6.46-13.41,9.71-20.1,6.4-13.19,12.67-26.28,17.75-40,.81-2.2-3.41-.57-4,.43Z" transform="translate(-97.37 -22.41)"/>
    <path d="M234.88,366.94c-7.42,14.82-12.88,30.61-20.21,45.52-2.55,5.18,6.65,2.75,8.15-.9,6-14.47,13.11-29.65,16.13-45.07.47-2.38-3.51-.68-4.07.45Z" transform="translate(-97.37 -22.41)"/>
    <path d="M255.81,368.46q-6.41,14.13-13.56,27.89c-1.82,3.49,4.35,2.15,5.49,0q7.22-13.76,13.64-27.89c1.66-3.65-4.53-2.26-5.57,0Z" transform="translate(-97.37 -22.41)"/>
    <path d="M298.08,363.15c-9.52,17-18.29,34-26.2,51.83-2.17,4.87,6.05,3,7.4,0,7.66-17.36,15.54-34.76,23.84-51.81,1.61-3.31-4-1.88-5,0Z" transform="translate(-97.37 -22.41)"/>
    <path d="M320.13,355c-2.91,4.5-4.4,9.79-5.88,14.9s-3.39,10.57-4.28,15.93c-.82,4.94,7.35,1,8.36-1.71,1.87-5.11,3-10.64,4.26-15.93,1.09-4.41,2.76-9.53,1.91-14.09-.41-2.18-3.76,0-4.37.9Z" transform="translate(-97.37 -22.41)"/>
    <path d="M350.4,340.64a9.13,9.13,0,0,1,3.41-2l-3.23-2.27c-6.23,12.4-11.54,25.16-18.21,37.36-2.35,4.29,5.4,2.69,6.86,0,6.5-12.16,13.42-24.9,17.76-38,1.06-3.22-4.24-1.35-5.25-.6a44.69,44.69,0,0,0-4.18,3.61c-2.71,2.56.69,3.81,2.84,1.93Z" transform="translate(-97.37 -22.41)"/>
    <path d="M362.59,353.59,352.15,377c-1.69,3.78,4.74,1.9,5.76-.63l9.32-23.26c.93-2.31-4-1-4.64.51Z" transform="translate(-97.37 -22.41)"/>
    <path d="M311,395.84c-4,6.47-7.7,13-11.24,19.72-1.64,3.12,3.75,1.72,4.81,0,3.93-6.49,7.63-13,11.08-19.72,1.57-3.06-3.62-1.63-4.65,0Z" transform="translate(-97.37 -22.41)"/>
    <path d="M206.86,45.24c-.66-2-4.63,0-5.61.57a13.91,13.91,0,0,0-2.8,2.21,9.84,9.84,0,0,0-2.64,4.45c-.39,1.71,1.09,2.37,2.57,2.21a6.59,6.59,0,0,0,4.86-3c.29-.53.56-1.08.87-1.59a5.29,5.29,0,0,1,.32-.5l-.23.33c.07-.25.47-.57.64-.77s.75-.76.3-.35c-.23.22-.22.21.05,0A3.17,3.17,0,0,0,206,48a2.73,2.73,0,0,0,.89-2.73Z" transform="translate(-97.37 -22.41)"/>
    <path d="M169,92.39c-12.58,18.64-25,37.37-36.8,56.55-2,3.22,4.11,2,5.34,0,11.57-19,23.24-38,35.58-56.55,1.61-2.42-3.12-1.46-4.12,0Z" transform="translate(-97.37 -22.41)"/>
    <path d="M188.06,51.23c-3.48,2.77-7,5.51-10.42,8.35-.95.78-2.25,2.49-.94,3.54s3.71-.15,4.68-1c3.29-2.89,6.48-5.89,9.71-8.84.73-.66,1.85-2,.76-2.87s-3,.16-3.79.82Z" transform="translate(-97.37 -22.41)"/>
    <path d="M146.33,87C139,100.28,130.55,113,123.7,126.41c-2.24,4.41,5.33,2.51,6.79,0,7.3-12.73,13.07-26.39,20-39.35,1.39-2.62-3.24-1.58-4.12,0Z" transform="translate(-97.37 -22.41)"/>
    <path d="M228.76,50.3c-.43.11-.86.24-1.28.38l1.27-.26a8.17,8.17,0,0,0-5,2,8.84,8.84,0,0,0-2.86,4c-.5,1.52,1.1,2.1,2.3,2a5.91,5.91,0,0,0,4.34-2.7c.16-.31.35-.6.52-.9s.17-.31.26-.46c.28-.52-.33.37-.06.08s.3-.39.44-.58c.65-.88.17-.13.1-.14.09,0,.66-.73.71-.79l-1.11.89c-.33.16-.34.17,0,0,.93-.37,2.26-1.25,2.33-2.38s-1.05-1.35-1.93-1.12Z" transform="translate(-97.37 -22.41)"/>
    <path d="M206.26,66.06c-3.24,2.26-5.1,5.66-7.19,8.92-1.08,1.7,0,3.29,1.91,3.31a7.16,7.16,0,0,0,5.8-3.35c1.39-2.77,3.91-6.1,2.89-9.27-.43-1.32-2.91,0-3.41.39Z" transform="translate(-97.37 -22.41)"/>
    <path d="M267.88,61.69c-4.72,4.77-9.49,9-13.29,14.59a72.82,72.82,0,0,0-8.66,16.88c-1.36,3.89,6.33,1.4,7.36-.81,4.7-10.13,10-21.6,17.6-29.89,2-2.15-1.8-2-3-.77Z" transform="translate(-97.37 -22.41)"/>
    <path d="M224.09,137.67c-7.29,10.54-14.43,21.2-21.26,32.05-2.15,3.41,4.47,2.3,5.8,0,6.24-10.94,12.81-21.63,19.89-32.05,1.75-2.58-3.34-1.54-4.43,0Z" transform="translate(-97.37 -22.41)"/>
    <path d="M267.53,112.33c-11.85,13.26-21.16,29.2-30.65,44.18-1.79,2.83,3.62,1.72,4.74,0,9.51-14.85,20.89-28.61,30-43.69,1.63-2.71-3.08-1.57-4.07-.46Z" transform="translate(-97.37 -22.41)"/>
    <path d="M233.77,185.24q-10.65,11.25-21.42,22.38c-3.33,3.47,3,3.67,5.13,1.31,6.71-7.59,13.41-15.17,20.19-22.7,2.53-2.8-2.33-2.65-3.9-1Z" transform="translate(-97.37 -22.41)"/>
    <path d="M154.9,147.82c-7.4,10.55-14.53,21.28-22,31.8-2.05,2.89,3.61,2.09,4.84.54a204.79,204.79,0,0,0,21.78-32.36c1.64-3.11-3.6-1.48-4.65,0Z" transform="translate(-97.37 -22.41)"/>
    <path d="M163.4,175.12a72.28,72.28,0,0,0-6.17,7.9,1.59,1.59,0,0,0,1.16,2.61,5.62,5.62,0,0,0,4.52-2,70.9,70.9,0,0,0,5.55-8,1.41,1.41,0,0,0-1-2.32,5,5,0,0,0-4,1.75Z" transform="translate(-97.37 -22.41)"/>
    <path d="M193.45,182.32c-3.15,3.73-6.6,7.17-9.27,11.28a1.72,1.72,0,0,0,1.26,2.83,6,6,0,0,0,4.91-2.13c2.91-3.57,5-7.6,7.38-11.49a1.2,1.2,0,0,0-.87-2,4.16,4.16,0,0,0-3.41,1.48Z" transform="translate(-97.37 -22.41)"/>
    <path d="M195.05,202.52A96.68,96.68,0,0,0,183.49,219c-2.32,4.36,5.52,2.78,6.94,0a152.53,152.53,0,0,1,8.9-16c1.79-2.66-3.21-1.77-4.28-.48Z" transform="translate(-97.37 -22.41)"/>
    <path d="M162.42,193.61a41.78,41.78,0,0,0-10,14.82c-.58,1.51,1.15,2,2.27,1.95a5.74,5.74,0,0,0,4.28-2.67,53.21,53.21,0,0,1,8.41-12.84c.92-1,1.23-2.56-.28-3.09s-3.59.79-4.65,1.83Z" transform="translate(-97.37 -22.41)"/>
    <path d="M183.22,105.61c-3.54,5-7.25,9.83-11,14.68-1,1.34-1.42,3.07.7,3.45,1.94.34,4.3-1.2,5.27-2.78,3.15-5.18,6.3-10.33,9.67-15.38.71-1.07-.06-1.9-1.16-2a4.41,4.41,0,0,0-3.5,2Z" transform="translate(-97.37 -22.41)"/>
    <path d="M252.44,56.48a36.08,36.08,0,0,0-8.5,7.19A43.4,43.4,0,0,0,238,73c-2.21,4.84,5.74,2.7,7.25,0a64.38,64.38,0,0,1,5.09-8.13c1.61-2.1,3.16-4.47,4.82-6.47,1.83-2.2-1-3-2.72-1.88Z" transform="translate(-97.37 -22.41)"/>
    <path d="M272.82,145.74c-3,5.08-6.31,10.08-9,15.33-1.78,3.45,4.11,1.86,5.27,0,3-4.94,5.59-10.22,8.32-15.33,1.58-2.94-3.57-1.67-4.57,0Z" transform="translate(-97.37 -22.41)"/>
</svg>